<svg xmlns="http://www.w3.org/2000/svg" version="1.1" xmlns:xlink="http://www.w3.org/1999/xlink" xmlns:svgjs="http://svgjs.com/svgjs" width="400" height="800" preserveAspectRatio="none" viewBox="0 0 400 800"><g mask="url(&quot;#SvgjsMask1112&quot;)" fill="none"><rect width="400" height="800" x="0" y="0" fill="rgba(180, 218, 233, 0.16)"></rect><path d="M-41.38 564.91L-41.38 564.91" stroke="rgba(19, 46, 101, 0.56)" stroke-width="1.5"></path><path d="M-41.38 564.91L26.42 537.79" stroke="rgba(19, 46, 101, 0.56)" stroke-width="1.5"></path><path d="M-41.38 564.91L29.85 657.46" stroke="rgba(19, 46, 101, 0.56)" stroke-width="1.5"></path><path d="M-67.09 773.74L-67.09 773.74" stroke="rgba(19, 46, 101, 0.56)" stroke-width="1.5"></path><path d="M-67.09 773.74L-47.75 849.81" stroke="rgba(19, 46, 101, 0.56)" stroke-width="1.5"></path><path d="M-67.09 773.74L28.79 839.46" stroke="rgba(19, 46, 101, 0.56)" stroke-width="1.5"></path><path d="M-47.75 849.81L-47.75 849.81" stroke="rgba(19, 46, 101, 0.56)" stroke-width="1.5"></path><path d="M-47.75 849.81L28.79 839.46" stroke="rgba(19, 46, 101, 0.56)" stroke-width="1.5"></path><path d="M-47.75 849.81L58.92 740.33" stroke="rgba(19, 46, 101, 0.56)" stroke-width="1.5"></path><path d="M-47.75 849.81L29.85 657.46" stroke="rgba(19, 46, 101, 0.56)" stroke-width="1.5"></path><path d="M-47.75 849.81L138.03 725.15" stroke="rgba(19, 46, 101, 0.56)" stroke-width="1.5"></path><path d="M-47.75 849.81L159.27 674.3" stroke="rgba(19, 46, 101, 0.56)" stroke-width="1.5"></path><path d="M69.11 463.53L69.11 463.53" stroke="rgba(19, 46, 101, 0.56)" stroke-width="1.5"></path><path d="M69.11 463.53L26.42 537.79" stroke="rgba(19, 46, 101, 0.56)" stroke-width="1.5"></path><path d="M69.11 463.53L169.94 434.58" stroke="rgba(19, 46, 101, 0.56)" stroke-width="1.5"></path><path d="M26.42 537.79L26.42 537.79" stroke="rgba(19, 46, 101, 0.56)" stroke-width="1.5"></path><path d="M26.42 537.79L29.85 657.46" stroke="rgba(19, 46, 101, 0.56)" stroke-width="1.5"></path><path d="M26.42 537.79L171.78 571.06" stroke="rgba(19, 46, 101, 0.56)" stroke-width="1.5"></path><path d="M29.85 657.46L29.85 657.46" stroke="rgba(19, 46, 101, 0.56)" stroke-width="1.5"></path><path d="M29.85 657.46L58.92 740.33" stroke="rgba(19, 46, 101, 0.56)" stroke-width="1.5"></path><path d="M29.85 657.46L138.03 725.15" stroke="rgba(19, 46, 101, 0.56)" stroke-width="1.5"></path><path d="M29.85 657.46L159.27 674.3" stroke="rgba(19, 46, 101, 0.56)" stroke-width="1.5"></path><path d="M29.85 657.46L-67.09 773.74" stroke="rgba(19, 46, 101, 0.56)" stroke-width="1.5"></path><path d="M58.92 740.33L58.92 740.33" stroke="rgba(19, 46, 101, 0.56)" stroke-width="1.5"></path><path d="M58.92 740.33L138.03 725.15" stroke="rgba(19, 46, 101, 0.56)" stroke-width="1.5"></path><path d="M28.79 839.46L28.79 839.46" stroke="rgba(19, 46, 101, 0.56)" stroke-width="1.5"></path><path d="M28.79 839.46L58.92 740.33" stroke="rgba(19, 46, 101, 0.56)" stroke-width="1.5"></path><path d="M28.79 839.46L138.03 725.15" stroke="rgba(19, 46, 101, 0.56)" stroke-width="1.5"></path><path d="M28.79 839.46L29.85 657.46" stroke="rgba(19, 46, 101, 0.56)" stroke-width="1.5"></path><path d="M169.94 434.58L169.94 434.58" stroke="rgba(19, 46, 101, 0.56)" stroke-width="1.5"></path><path d="M169.94 434.58L262.33 457.79" stroke="rgba(19, 46, 101, 0.56)" stroke-width="1.5"></path><path d="M171.78 571.06L171.78 571.06" stroke="rgba(19, 46, 101, 0.56)" stroke-width="1.5"></path><path d="M171.78 571.06L252.72 554.92" stroke="rgba(19, 46, 101, 0.56)" stroke-width="1.5"></path><path d="M171.78 571.06L159.27 674.3" stroke="rgba(19, 46, 101, 0.56)" stroke-width="1.5"></path><path d="M171.78 571.06L239.78 653.31" stroke="rgba(19, 46, 101, 0.56)" stroke-width="1.5"></path><path d="M171.78 571.06L169.94 434.58" stroke="rgba(19, 46, 101, 0.56)" stroke-width="1.5"></path><path d="M159.27 674.3L159.27 674.3" stroke="rgba(19, 46, 101, 0.56)" stroke-width="1.5"></path><path d="M159.27 674.3L138.03 725.15" stroke="rgba(19, 46, 101, 0.56)" stroke-width="1.5"></path><path d="M159.27 674.3L239.78 653.31" stroke="rgba(19, 46, 101, 0.56)" stroke-width="1.5"></path><path d="M138.03 725.15L138.03 725.15" stroke="rgba(19, 46, 101, 0.56)" stroke-width="1.5"></path><path d="M138.03 725.15L247.84 753.64" stroke="rgba(19, 46, 101, 0.56)" stroke-width="1.5"></path><path d="M138.03 725.15L239.78 653.31" stroke="rgba(19, 46, 101, 0.56)" stroke-width="1.5"></path><path d="M247.1 -57.87L247.1 -57.87" stroke="rgba(19, 46, 101, 0.56)" stroke-width="1.5"></path><path d="M247.1 -57.87L244.54 39.41" stroke="rgba(19, 46, 101, 0.56)" stroke-width="1.5"></path><path d="M247.1 -57.87L368.27 -57.68" stroke="rgba(19, 46, 101, 0.56)" stroke-width="1.5"></path><path d="M247.1 -57.87L436.37 -36.74" stroke="rgba(19, 46, 101, 0.56)" stroke-width="1.5"></path><path d="M244.54 39.41L244.54 39.41" stroke="rgba(19, 46, 101, 0.56)" stroke-width="1.5"></path><path d="M244.54 39.41L244.91 166.63" stroke="rgba(19, 46, 101, 0.56)" stroke-width="1.5"></path><path d="M244.54 39.41L368.27 -57.68" stroke="rgba(19, 46, 101, 0.56)" stroke-width="1.5"></path><path d="M244.54 39.41L348.47 160.59" stroke="rgba(19, 46, 101, 0.56)" stroke-width="1.5"></path><path d="M244.91 166.63L244.91 166.63" stroke="rgba(19, 46, 101, 0.56)" stroke-width="1.5"></path><path d="M244.91 166.63L348.47 160.59" stroke="rgba(19, 46, 101, 0.56)" stroke-width="1.5"></path><path d="M244.91 166.63L226.73 274.09" stroke="rgba(19, 46, 101, 0.56)" stroke-width="1.5"></path><path d="M244.91 166.63L330.54 267.36" stroke="rgba(19, 46, 101, 0.56)" stroke-width="1.5"></path><path d="M244.91 166.63L258.59 335.84" stroke="rgba(19, 46, 101, 0.56)" stroke-width="1.5"></path><path d="M226.73 274.09L226.73 274.09" stroke="rgba(19, 46, 101, 0.56)" stroke-width="1.5"></path><path d="M226.73 274.09L258.59 335.84" stroke="rgba(19, 46, 101, 0.56)" stroke-width="1.5"></path><path d="M226.73 274.09L330.54 267.36" stroke="rgba(19, 46, 101, 0.56)" stroke-width="1.5"></path><path d="M226.73 274.09L325.3 361.21" stroke="rgba(19, 46, 101, 0.56)" stroke-width="1.5"></path><path d="M258.59 335.84L258.59 335.84" stroke="rgba(19, 46, 101, 0.56)" stroke-width="1.5"></path><path d="M258.59 335.84L325.3 361.21" stroke="rgba(19, 46, 101, 0.56)" stroke-width="1.5"></path><path d="M258.59 335.84L330.54 267.36" stroke="rgba(19, 46, 101, 0.56)" stroke-width="1.5"></path><path d="M258.59 335.84L262.33 457.79" stroke="rgba(19, 46, 101, 0.56)" stroke-width="1.5"></path><path d="M258.59 335.84L169.94 434.58" stroke="rgba(19, 46, 101, 0.56)" stroke-width="1.5"></path><path d="M262.33 457.79L262.33 457.79" stroke="rgba(19, 46, 101, 0.56)" stroke-width="1.5"></path><path d="M262.33 457.79L252.72 554.92" stroke="rgba(19, 46, 101, 0.56)" stroke-width="1.5"></path><path d="M262.33 457.79L325.3 361.21" stroke="rgba(19, 46, 101, 0.56)" stroke-width="1.5"></path><path d="M252.72 554.92L252.72 554.92" stroke="rgba(19, 46, 101, 0.56)" stroke-width="1.5"></path><path d="M252.72 554.92L239.78 653.31" stroke="rgba(19, 46, 101, 0.56)" stroke-width="1.5"></path><path d="M252.72 554.92L351.98 541.24" stroke="rgba(19, 46, 101, 0.56)" stroke-width="1.5"></path><path d="M252.72 554.92L169.94 434.58" stroke="rgba(19, 46, 101, 0.56)" stroke-width="1.5"></path><path d="M239.78 653.31L239.78 653.31" stroke="rgba(19, 46, 101, 0.56)" stroke-width="1.5"></path><path d="M239.78 653.31L247.84 753.64" stroke="rgba(19, 46, 101, 0.56)" stroke-width="1.5"></path><path d="M247.84 753.64L247.84 753.64" stroke="rgba(19, 46, 101, 0.56)" stroke-width="1.5"></path><path d="M247.84 753.64L236.04 842.99" stroke="rgba(19, 46, 101, 0.56)" stroke-width="1.5"></path><path d="M247.84 753.64L357.37 742.28" stroke="rgba(19, 46, 101, 0.56)" stroke-width="1.5"></path><path d="M247.84 753.64L159.27 674.3" stroke="rgba(19, 46, 101, 0.56)" stroke-width="1.5"></path><path d="M247.84 753.64L58.92 740.33" stroke="rgba(19, 46, 101, 0.56)" stroke-width="1.5"></path><path d="M236.04 842.99L236.04 842.99" stroke="rgba(19, 46, 101, 0.56)" stroke-width="1.5"></path><path d="M236.04 842.99L138.03 725.15" stroke="rgba(19, 46, 101, 0.56)" stroke-width="1.5"></path><path d="M236.04 842.99L357.37 742.28" stroke="rgba(19, 46, 101, 0.56)" stroke-width="1.5"></path><path d="M368.27 -57.68L368.27 -57.68" stroke="rgba(19, 46, 101, 0.56)" stroke-width="1.5"></path><path d="M368.27 -57.68L436.37 -36.74" stroke="rgba(19, 46, 101, 0.56)" stroke-width="1.5"></path><path d="M368.27 -57.68L474.3 33.26" stroke="rgba(19, 46, 101, 0.56)" stroke-width="1.5"></path><path d="M348.47 160.59L348.47 160.59" stroke="rgba(19, 46, 101, 0.56)" stroke-width="1.5"></path><path d="M348.47 160.59L436.51 126.39" stroke="rgba(19, 46, 101, 0.56)" stroke-width="1.5"></path><path d="M348.47 160.59L330.54 267.36" stroke="rgba(19, 46, 101, 0.56)" stroke-width="1.5"></path><path d="M348.47 160.59L460.8 241.28" stroke="rgba(19, 46, 101, 0.56)" stroke-width="1.5"></path><path d="M348.47 160.59L226.73 274.09" stroke="rgba(19, 46, 101, 0.56)" stroke-width="1.5"></path><path d="M330.54 267.36L330.54 267.36" stroke="rgba(19, 46, 101, 0.56)" stroke-width="1.5"></path><path d="M330.54 267.36L325.3 361.21" stroke="rgba(19, 46, 101, 0.56)" stroke-width="1.5"></path><path d="M330.54 267.36L460.8 241.28" stroke="rgba(19, 46, 101, 0.56)" stroke-width="1.5"></path><path d="M325.3 361.21L325.3 361.21" stroke="rgba(19, 46, 101, 0.56)" stroke-width="1.5"></path><path d="M325.3 361.21L427.03 426.64" stroke="rgba(19, 46, 101, 0.56)" stroke-width="1.5"></path><path d="M325.3 361.21L472.57 356.88" stroke="rgba(19, 46, 101, 0.56)" stroke-width="1.5"></path><path d="M351.98 541.24L351.98 541.24" stroke="rgba(19, 46, 101, 0.56)" stroke-width="1.5"></path><path d="M351.98 541.24L429.79 550.44" stroke="rgba(19, 46, 101, 0.56)" stroke-width="1.5"></path><path d="M357.37 742.28L357.37 742.28" stroke="rgba(19, 46, 101, 0.56)" stroke-width="1.5"></path><path d="M357.37 742.28L444.73 757.41" stroke="rgba(19, 46, 101, 0.56)" stroke-width="1.5"></path><path d="M357.37 742.28L433 627.31" stroke="rgba(19, 46, 101, 0.56)" stroke-width="1.5"></path><path d="M357.37 742.28L239.78 653.31" stroke="rgba(19, 46, 101, 0.56)" stroke-width="1.5"></path><path d="M357.37 742.28L351.98 541.24" stroke="rgba(19, 46, 101, 0.56)" stroke-width="1.5"></path><path d="M436.37 -36.74L436.37 -36.74" stroke="rgba(19, 46, 101, 0.56)" stroke-width="1.5"></path><path d="M436.37 -36.74L474.3 33.26" stroke="rgba(19, 46, 101, 0.56)" stroke-width="1.5"></path><path d="M436.37 -36.74L436.51 126.39" stroke="rgba(19, 46, 101, 0.56)" stroke-width="1.5"></path><path d="M436.37 -36.74L244.54 39.41" stroke="rgba(19, 46, 101, 0.56)" stroke-width="1.5"></path><path d="M474.3 33.26L474.3 33.26" stroke="rgba(19, 46, 101, 0.56)" stroke-width="1.5"></path><path d="M474.3 33.26L436.51 126.39" stroke="rgba(19, 46, 101, 0.56)" stroke-width="1.5"></path><path d="M436.51 126.39L436.51 126.39" stroke="rgba(19, 46, 101, 0.56)" stroke-width="1.5"></path><path d="M436.51 126.39L460.8 241.28" stroke="rgba(19, 46, 101, 0.56)" stroke-width="1.5"></path><path d="M436.51 126.39L330.54 267.36" stroke="rgba(19, 46, 101, 0.56)" stroke-width="1.5"></path><path d="M436.51 126.39L244.91 166.63" stroke="rgba(19, 46, 101, 0.56)" stroke-width="1.5"></path><path d="M460.8 241.28L460.8 241.28" stroke="rgba(19, 46, 101, 0.56)" stroke-width="1.5"></path><path d="M460.8 241.28L472.57 356.88" stroke="rgba(19, 46, 101, 0.56)" stroke-width="1.5"></path><path d="M472.57 356.88L472.57 356.88" stroke="rgba(19, 46, 101, 0.56)" stroke-width="1.5"></path><path d="M472.57 356.88L427.03 426.64" stroke="rgba(19, 46, 101, 0.56)" stroke-width="1.5"></path><path d="M472.57 356.88L330.54 267.36" stroke="rgba(19, 46, 101, 0.56)" stroke-width="1.5"></path><path d="M427.03 426.64L427.03 426.64" stroke="rgba(19, 46, 101, 0.56)" stroke-width="1.5"></path><path d="M427.03 426.64L429.79 550.44" stroke="rgba(19, 46, 101, 0.56)" stroke-width="1.5"></path><path d="M427.03 426.64L351.98 541.24" stroke="rgba(19, 46, 101, 0.56)" stroke-width="1.5"></path><path d="M427.03 426.64L262.33 457.79" stroke="rgba(19, 46, 101, 0.56)" stroke-width="1.5"></path><path d="M427.03 426.64L330.54 267.36" stroke="rgba(19, 46, 101, 0.56)" stroke-width="1.5"></path><path d="M429.79 550.44L429.79 550.44" stroke="rgba(19, 46, 101, 0.56)" stroke-width="1.5"></path><path d="M429.79 550.44L433 627.31" stroke="rgba(19, 46, 101, 0.56)" stroke-width="1.5"></path><path d="M429.79 550.44L252.72 554.92" stroke="rgba(19, 46, 101, 0.56)" stroke-width="1.5"></path><path d="M433 627.31L433 627.31" stroke="rgba(19, 46, 101, 0.56)" stroke-width="1.5"></path><path d="M433 627.31L351.98 541.24" stroke="rgba(19, 46, 101, 0.56)" stroke-width="1.5"></path><path d="M433 627.31L444.73 757.41" stroke="rgba(19, 46, 101, 0.56)" stroke-width="1.5"></path><path d="M444.73 757.41L444.73 757.41" stroke="rgba(19, 46, 101, 0.56)" stroke-width="1.5"></path><path d="M444.73 757.41L247.84 753.64" stroke="rgba(19, 46, 101, 0.56)" stroke-width="1.5"></path><path d="M444.73 757.41L429.79 550.44" stroke="rgba(19, 46, 101, 0.56)" stroke-width="1.5"></path><path d="M444.73 757.41L236.04 842.99" stroke="rgba(19, 46, 101, 0.56)" stroke-width="1.5"></path><circle r="5" cx="-41.38" cy="564.91" fill="rgba(19, 46, 101, 0.56)"></circle><circle r="5" cx="-67.09" cy="773.74" fill="rgba(19, 46, 101, 0.56)"></circle><circle r="5" cx="-47.75" cy="849.81" fill="rgba(19, 46, 101, 0.56)"></circle><circle r="5" cx="69.11" cy="463.53" fill="rgba(19, 46, 101, 0.56)"></circle><circle r="5" cx="26.42" cy="537.79" fill="rgba(19, 46, 101, 0.56)"></circle><circle r="5" cx="29.85" cy="657.46" fill="rgba(19, 46, 101, 0.56)"></circle><circle r="5" cx="58.92" cy="740.33" fill="rgba(19, 46, 101, 0.56)"></circle><circle r="5" cx="28.79" cy="839.46" fill="rgba(19, 46, 101, 0.56)"></circle><circle r="5" cx="169.94" cy="434.58" fill="rgba(19, 46, 101, 0.56)"></circle><circle r="5" cx="171.78" cy="571.06" fill="rgba(19, 46, 101, 0.56)"></circle><circle r="5" cx="159.27" cy="674.3" fill="rgba(19, 46, 101, 0.56)"></circle><circle r="5" cx="138.03" cy="725.15" fill="rgba(19, 46, 101, 0.56)"></circle><circle r="5" cx="247.1" cy="-57.87" fill="rgba(19, 46, 101, 0.56)"></circle><circle r="5" cx="244.54" cy="39.41" fill="rgba(19, 46, 101, 0.56)"></circle><circle r="5" cx="244.91" cy="166.63" fill="rgba(19, 46, 101, 0.56)"></circle><circle r="5" cx="226.73" cy="274.09" fill="rgba(19, 46, 101, 0.56)"></circle><circle r="5" cx="258.59" cy="335.84" fill="rgba(19, 46, 101, 0.56)"></circle><circle r="5" cx="262.33" cy="457.79" fill="rgba(19, 46, 101, 0.56)"></circle><circle r="5" cx="252.72" cy="554.92" fill="rgba(19, 46, 101, 0.56)"></circle><circle r="5" cx="239.78" cy="653.31" fill="rgba(19, 46, 101, 0.56)"></circle><circle r="5" cx="247.84" cy="753.64" fill="rgba(19, 46, 101, 0.56)"></circle><circle r="5" cx="236.04" cy="842.99" fill="rgba(19, 46, 101, 0.56)"></circle><circle r="5" cx="368.27" cy="-57.68" fill="rgba(19, 46, 101, 0.56)"></circle><circle r="5" cx="348.47" cy="160.59" fill="rgba(19, 46, 101, 0.56)"></circle><circle r="5" cx="330.54" cy="267.36" fill="rgba(19, 46, 101, 0.56)"></circle><circle r="5" cx="325.3" cy="361.21" fill="rgba(19, 46, 101, 0.56)"></circle><circle r="5" cx="351.98" cy="541.24" fill="rgba(19, 46, 101, 0.56)"></circle><circle r="5" cx="357.37" cy="742.28" fill="rgba(19, 46, 101, 0.56)"></circle><circle r="5" cx="436.37" cy="-36.74" fill="rgba(19, 46, 101, 0.56)"></circle><circle r="5" cx="474.3" cy="33.26" fill="rgba(19, 46, 101, 0.56)"></circle><circle r="5" cx="436.51" cy="126.39" fill="rgba(19, 46, 101, 0.56)"></circle><circle r="5" cx="460.8" cy="241.28" fill="rgba(19, 46, 101, 0.56)"></circle><circle r="5" cx="472.57" cy="356.88" fill="rgba(19, 46, 101, 0.56)"></circle><circle r="5" cx="427.03" cy="426.64" fill="rgba(19, 46, 101, 0.56)"></circle><circle r="5" cx="429.79" cy="550.44" fill="rgba(19, 46, 101, 0.56)"></circle><circle r="5" cx="433" cy="627.31" fill="rgba(19, 46, 101, 0.56)"></circle><circle r="5" cx="444.73" cy="757.41" fill="rgba(19, 46, 101, 0.56)"></circle><path d="M-64.11 735.92L-64.11 735.92" stroke="hsla(217.39999999999998, 84.4%, 45.6%, 0.95)" stroke-width="1.5"></path><path d="M-64.11 735.92L-28.76 838.93" stroke="hsla(217.39999999999998, 84.4%, 45.6%, 0.95)" stroke-width="1.5"></path><path d="M-64.11 735.92L48.83 749.61" stroke="hsla(217.39999999999998, 84.4%, 45.6%, 0.95)" stroke-width="1.5"></path><path d="M-64.11 735.92L74.16 648.13" stroke="hsla(217.39999999999998, 84.4%, 45.6%, 0.95)" stroke-width="1.5"></path><path d="M-64.11 735.92L66.47 838.7" stroke="hsla(217.39999999999998, 84.4%, 45.6%, 0.95)" stroke-width="1.5"></path><path d="M74.16 648.13L74.16 648.13" stroke="hsla(217.39999999999998, 84.4%, 45.6%, 0.95)" stroke-width="1.5"></path><path d="M74.16 648.13L145.46 638.61" stroke="hsla(217.39999999999998, 84.4%, 45.6%, 0.95)" stroke-width="1.5"></path><path d="M74.16 648.13L141.69 726.55" stroke="hsla(217.39999999999998, 84.4%, 45.6%, 0.95)" stroke-width="1.5"></path><path d="M229.37 558.97L229.37 558.97" stroke="hsla(217.39999999999998, 84.4%, 45.6%, 0.95)" stroke-width="1.5"></path><path d="M229.37 558.97L270.02 627.46" stroke="hsla(217.39999999999998, 84.4%, 45.6%, 0.95)" stroke-width="1.5"></path><path d="M229.37 558.97L254.44 458.39" stroke="hsla(217.39999999999998, 84.4%, 45.6%, 0.95)" stroke-width="1.5"></path><path d="M229.37 558.97L340.19 561.45" stroke="hsla(217.39999999999998, 84.4%, 45.6%, 0.95)" stroke-width="1.5"></path><path d="M237.13 768.87L237.13 768.87" stroke="hsla(217.39999999999998, 84.4%, 45.6%, 0.95)" stroke-width="1.5"></path><path d="M237.13 768.87L174.91 845.74" stroke="hsla(217.39999999999998, 84.4%, 45.6%, 0.95)" stroke-width="1.5"></path><path d="M237.13 768.87L227.58 872.41" stroke="hsla(217.39999999999998, 84.4%, 45.6%, 0.95)" stroke-width="1.5"></path><path d="M237.13 768.87L141.69 726.55" stroke="hsla(217.39999999999998, 84.4%, 45.6%, 0.95)" stroke-width="1.5"></path><path d="M237.13 768.87L339.18 856.28" stroke="hsla(217.39999999999998, 84.4%, 45.6%, 0.95)" stroke-width="1.5"></path><path d="M325.08 163.53L325.08 163.53" stroke="hsla(217.39999999999998, 84.4%, 45.6%, 0.95)" stroke-width="1.5"></path><path d="M325.08 163.53L348.01 55.81" stroke="hsla(217.39999999999998, 84.4%, 45.6%, 0.95)" stroke-width="1.5"></path><path d="M325.08 163.53L434.89 135.05" stroke="hsla(217.39999999999998, 84.4%, 45.6%, 0.95)" stroke-width="1.5"></path><path d="M325.08 163.53L462.77 246.1" stroke="hsla(217.39999999999998, 84.4%, 45.6%, 0.95)" stroke-width="1.5"></path><path d="M325.08 163.53L464.95 40.84" stroke="hsla(217.39999999999998, 84.4%, 45.6%, 0.95)" stroke-width="1.5"></path><path d="M364.86 444.09L364.86 444.09" stroke="hsla(217.39999999999998, 84.4%, 45.6%, 0.95)" stroke-width="1.5"></path><path d="M364.86 444.09L336.66 358.21" stroke="hsla(217.39999999999998, 84.4%, 45.6%, 0.95)" stroke-width="1.5"></path><path d="M364.86 444.09L455.76 474.79" stroke="hsla(217.39999999999998, 84.4%, 45.6%, 0.95)" stroke-width="1.5"></path><path d="M364.86 444.09L254.44 458.39" stroke="hsla(217.39999999999998, 84.4%, 45.6%, 0.95)" stroke-width="1.5"></path><path d="M364.86 444.09L340.19 561.45" stroke="hsla(217.39999999999998, 84.4%, 45.6%, 0.95)" stroke-width="1.5"></path><path d="M340.19 561.45L340.19 561.45" stroke="hsla(217.39999999999998, 84.4%, 45.6%, 0.95)" stroke-width="1.5"></path><path d="M340.19 561.45L270.02 627.46" stroke="hsla(217.39999999999998, 84.4%, 45.6%, 0.95)" stroke-width="1.5"></path><path d="M340.19 561.45L444.53 558.1" stroke="hsla(217.39999999999998, 84.4%, 45.6%, 0.95)" stroke-width="1.5"></path><path d="M339.18 856.28L339.18 856.28" stroke="hsla(217.39999999999998, 84.4%, 45.6%, 0.95)" stroke-width="1.5"></path><path d="M339.18 856.28L438.47 854.81" stroke="hsla(217.39999999999998, 84.4%, 45.6%, 0.95)" stroke-width="1.5"></path><path d="M339.18 856.28L227.58 872.41" stroke="hsla(217.39999999999998, 84.4%, 45.6%, 0.95)" stroke-width="1.5"></path><path d="M339.18 856.28L369.94 727.3" stroke="hsla(217.39999999999998, 84.4%, 45.6%, 0.95)" stroke-width="1.5"></path><path d="M434.89 135.05L434.89 135.05" stroke="hsla(217.39999999999998, 84.4%, 45.6%, 0.95)" stroke-width="1.5"></path><path d="M434.89 135.05L464.95 40.84" stroke="hsla(217.39999999999998, 84.4%, 45.6%, 0.95)" stroke-width="1.5"></path><path d="M434.89 135.05L462.77 246.1" stroke="hsla(217.39999999999998, 84.4%, 45.6%, 0.95)" stroke-width="1.5"></path><path d="M434.89 135.05L348.01 55.81" stroke="hsla(217.39999999999998, 84.4%, 45.6%, 0.95)" stroke-width="1.5"></path><path d="M-28.76 838.93L-28.76 838.93" stroke="hsla(217.39999999999998, 84.4%, 45.6%, 0.95)" stroke-width="1.5"></path><path d="M-28.76 838.93L66.47 838.7" stroke="hsla(217.39999999999998, 84.4%, 45.6%, 0.95)" stroke-width="1.5"></path><path d="M-28.76 838.93L48.83 749.61" stroke="hsla(217.39999999999998, 84.4%, 45.6%, 0.95)" stroke-width="1.5"></path><path d="M48.83 749.61L48.83 749.61" stroke="hsla(217.39999999999998, 84.4%, 45.6%, 0.95)" stroke-width="1.5"></path><path d="M48.83 749.61L66.47 838.7" stroke="hsla(217.39999999999998, 84.4%, 45.6%, 0.95)" stroke-width="1.5"></path><path d="M48.83 749.61L141.69 726.55" stroke="hsla(217.39999999999998, 84.4%, 45.6%, 0.95)" stroke-width="1.5"></path><path d="M48.83 749.61L74.16 648.13" stroke="hsla(217.39999999999998, 84.4%, 45.6%, 0.95)" stroke-width="1.5"></path><path d="M66.47 838.7L66.47 838.7" stroke="hsla(217.39999999999998, 84.4%, 45.6%, 0.95)" stroke-width="1.5"></path><path d="M66.47 838.7L174.91 845.74" stroke="hsla(217.39999999999998, 84.4%, 45.6%, 0.95)" stroke-width="1.5"></path><path d="M66.47 838.7L141.69 726.55" stroke="hsla(217.39999999999998, 84.4%, 45.6%, 0.95)" stroke-width="1.5"></path><path d="M66.47 838.7L227.58 872.41" stroke="hsla(217.39999999999998, 84.4%, 45.6%, 0.95)" stroke-width="1.5"></path><path d="M145.46 638.61L145.46 638.61" stroke="hsla(217.39999999999998, 84.4%, 45.6%, 0.95)" stroke-width="1.5"></path><path d="M145.46 638.61L141.69 726.55" stroke="hsla(217.39999999999998, 84.4%, 45.6%, 0.95)" stroke-width="1.5"></path><path d="M141.69 726.55L141.69 726.55" stroke="hsla(217.39999999999998, 84.4%, 45.6%, 0.95)" stroke-width="1.5"></path><path d="M174.91 845.74L174.91 845.74" stroke="hsla(217.39999999999998, 84.4%, 45.6%, 0.95)" stroke-width="1.5"></path><path d="M174.91 845.74L227.58 872.41" stroke="hsla(217.39999999999998, 84.4%, 45.6%, 0.95)" stroke-width="1.5"></path><path d="M254.44 458.39L254.44 458.39" stroke="hsla(217.39999999999998, 84.4%, 45.6%, 0.95)" stroke-width="1.5"></path><path d="M254.44 458.39L336.66 358.21" stroke="hsla(217.39999999999998, 84.4%, 45.6%, 0.95)" stroke-width="1.5"></path><path d="M270.02 627.46L270.02 627.46" stroke="hsla(217.39999999999998, 84.4%, 45.6%, 0.95)" stroke-width="1.5"></path><path d="M270.02 627.46L145.46 638.61" stroke="hsla(217.39999999999998, 84.4%, 45.6%, 0.95)" stroke-width="1.5"></path><path d="M270.02 627.46L369.94 727.3" stroke="hsla(217.39999999999998, 84.4%, 45.6%, 0.95)" stroke-width="1.5"></path><path d="M270.02 627.46L237.13 768.87" stroke="hsla(217.39999999999998, 84.4%, 45.6%, 0.95)" stroke-width="1.5"></path><path d="M270.02 627.46L141.69 726.55" stroke="hsla(217.39999999999998, 84.4%, 45.6%, 0.95)" stroke-width="1.5"></path><path d="M227.58 872.41L227.58 872.41" stroke="hsla(217.39999999999998, 84.4%, 45.6%, 0.95)" stroke-width="1.5"></path><path d="M336.57 -69.4L336.57 -69.4" stroke="hsla(217.39999999999998, 84.4%, 45.6%, 0.95)" stroke-width="1.5"></path><path d="M336.57 -69.4L348.01 55.81" stroke="hsla(217.39999999999998, 84.4%, 45.6%, 0.95)" stroke-width="1.5"></path><path d="M336.57 -69.4L466.84 -30.67" stroke="hsla(217.39999999999998, 84.4%, 45.6%, 0.95)" stroke-width="1.5"></path><path d="M336.57 -69.4L464.95 40.84" stroke="hsla(217.39999999999998, 84.4%, 45.6%, 0.95)" stroke-width="1.5"></path><path d="M336.57 -69.4L434.89 135.05" stroke="hsla(217.39999999999998, 84.4%, 45.6%, 0.95)" stroke-width="1.5"></path><path d="M336.57 -69.4L325.08 163.53" stroke="hsla(217.39999999999998, 84.4%, 45.6%, 0.95)" stroke-width="1.5"></path><path d="M336.57 -69.4L462.77 246.1" stroke="hsla(217.39999999999998, 84.4%, 45.6%, 0.95)" stroke-width="1.5"></path><path d="M348.01 55.81L348.01 55.81" stroke="hsla(217.39999999999998, 84.4%, 45.6%, 0.95)" stroke-width="1.5"></path><path d="M348.01 55.81L464.95 40.84" stroke="hsla(217.39999999999998, 84.4%, 45.6%, 0.95)" stroke-width="1.5"></path><path d="M336.66 358.21L336.66 358.21" stroke="hsla(217.39999999999998, 84.4%, 45.6%, 0.95)" stroke-width="1.5"></path><path d="M336.66 358.21L464.96 370.91" stroke="hsla(217.39999999999998, 84.4%, 45.6%, 0.95)" stroke-width="1.5"></path><path d="M336.66 358.21L455.76 474.79" stroke="hsla(217.39999999999998, 84.4%, 45.6%, 0.95)" stroke-width="1.5"></path><path d="M336.66 358.21L462.77 246.1" stroke="hsla(217.39999999999998, 84.4%, 45.6%, 0.95)" stroke-width="1.5"></path><path d="M369.94 727.3L369.94 727.3" stroke="hsla(217.39999999999998, 84.4%, 45.6%, 0.95)" stroke-width="1.5"></path><path d="M369.94 727.3L464.91 766.89" stroke="hsla(217.39999999999998, 84.4%, 45.6%, 0.95)" stroke-width="1.5"></path><path d="M369.94 727.3L237.13 768.87" stroke="hsla(217.39999999999998, 84.4%, 45.6%, 0.95)" stroke-width="1.5"></path><path d="M466.84 -30.67L466.84 -30.67" stroke="hsla(217.39999999999998, 84.4%, 45.6%, 0.95)" stroke-width="1.5"></path><path d="M466.84 -30.67L464.95 40.84" stroke="hsla(217.39999999999998, 84.4%, 45.6%, 0.95)" stroke-width="1.5"></path><path d="M466.84 -30.67L348.01 55.81" stroke="hsla(217.39999999999998, 84.4%, 45.6%, 0.95)" stroke-width="1.5"></path><path d="M466.84 -30.67L434.89 135.05" stroke="hsla(217.39999999999998, 84.4%, 45.6%, 0.95)" stroke-width="1.5"></path><path d="M466.84 -30.67L325.08 163.53" stroke="hsla(217.39999999999998, 84.4%, 45.6%, 0.95)" stroke-width="1.5"></path><path d="M464.95 40.84L464.95 40.84" stroke="hsla(217.39999999999998, 84.4%, 45.6%, 0.95)" stroke-width="1.5"></path><path d="M462.77 246.1L462.77 246.1" stroke="hsla(217.39999999999998, 84.4%, 45.6%, 0.95)" stroke-width="1.5"></path><path d="M462.77 246.1L464.96 370.91" stroke="hsla(217.39999999999998, 84.4%, 45.6%, 0.95)" stroke-width="1.5"></path><path d="M462.77 246.1L464.95 40.84" stroke="hsla(217.39999999999998, 84.4%, 45.6%, 0.95)" stroke-width="1.5"></path><path d="M464.96 370.91L464.96 370.91" stroke="hsla(217.39999999999998, 84.4%, 45.6%, 0.95)" stroke-width="1.5"></path><path d="M464.96 370.91L455.76 474.79" stroke="hsla(217.39999999999998, 84.4%, 45.6%, 0.95)" stroke-width="1.5"></path><path d="M464.96 370.91L364.86 444.09" stroke="hsla(217.39999999999998, 84.4%, 45.6%, 0.95)" stroke-width="1.5"></path><path d="M464.96 370.91L444.53 558.1" stroke="hsla(217.39999999999998, 84.4%, 45.6%, 0.95)" stroke-width="1.5"></path><path d="M455.76 474.79L455.76 474.79" stroke="hsla(217.39999999999998, 84.4%, 45.6%, 0.95)" stroke-width="1.5"></path><path d="M455.76 474.79L444.53 558.1" stroke="hsla(217.39999999999998, 84.4%, 45.6%, 0.95)" stroke-width="1.5"></path><path d="M455.76 474.79L340.19 561.45" stroke="hsla(217.39999999999998, 84.4%, 45.6%, 0.95)" stroke-width="1.5"></path><path d="M444.53 558.1L444.53 558.1" stroke="hsla(217.39999999999998, 84.4%, 45.6%, 0.95)" stroke-width="1.5"></path><path d="M444.53 558.1L364.86 444.09" stroke="hsla(217.39999999999998, 84.4%, 45.6%, 0.95)" stroke-width="1.5"></path><path d="M444.53 558.1L369.94 727.3" stroke="hsla(217.39999999999998, 84.4%, 45.6%, 0.95)" stroke-width="1.5"></path><path d="M444.53 558.1L270.02 627.46" stroke="hsla(217.39999999999998, 84.4%, 45.6%, 0.95)" stroke-width="1.5"></path><path d="M464.91 766.89L464.91 766.89" stroke="hsla(217.39999999999998, 84.4%, 45.6%, 0.95)" stroke-width="1.5"></path><path d="M464.91 766.89L438.47 854.81" stroke="hsla(217.39999999999998, 84.4%, 45.6%, 0.95)" stroke-width="1.5"></path><path d="M464.91 766.89L339.18 856.28" stroke="hsla(217.39999999999998, 84.4%, 45.6%, 0.95)" stroke-width="1.5"></path><path d="M464.91 766.89L444.53 558.1" stroke="hsla(217.39999999999998, 84.4%, 45.6%, 0.95)" stroke-width="1.5"></path><path d="M464.91 766.89L237.13 768.87" stroke="hsla(217.39999999999998, 84.4%, 45.6%, 0.95)" stroke-width="1.5"></path><path d="M464.91 766.89L270.02 627.46" stroke="hsla(217.39999999999998, 84.4%, 45.6%, 0.95)" stroke-width="1.5"></path><path d="M438.47 854.81L438.47 854.81" stroke="hsla(217.39999999999998, 84.4%, 45.6%, 0.95)" stroke-width="1.5"></path><path d="M438.47 854.81L369.94 727.3" stroke="hsla(217.39999999999998, 84.4%, 45.6%, 0.95)" stroke-width="1.5"></path><path d="M438.47 854.81L227.58 872.41" stroke="hsla(217.39999999999998, 84.4%, 45.6%, 0.95)" stroke-width="1.5"></path><path d="M438.47 854.81L237.13 768.87" stroke="hsla(217.39999999999998, 84.4%, 45.6%, 0.95)" stroke-width="1.5"></path><path d="M438.47 854.81L174.91 845.74" stroke="hsla(217.39999999999998, 84.4%, 45.6%, 0.95)" stroke-width="1.5"></path><circle r="25" cx="-64.11" cy="735.92" fill="url(#SvgjsRadialGradient1113)"></circle><circle r="25" cx="74.16" cy="648.13" fill="url(#SvgjsRadialGradient1113)"></circle><circle r="25" cx="229.37" cy="558.97" fill="url(#SvgjsRadialGradient1113)"></circle><circle r="25" cx="237.13" cy="768.87" fill="url(#SvgjsRadialGradient1113)"></circle><circle r="25" cx="325.08" cy="163.53" fill="url(#SvgjsRadialGradient1113)"></circle><circle r="25" cx="364.86" cy="444.09" fill="url(#SvgjsRadialGradient1113)"></circle><circle r="25" cx="340.19" cy="561.45" fill="url(#SvgjsRadialGradient1113)"></circle><circle r="25" cx="339.18" cy="856.28" fill="url(#SvgjsRadialGradient1113)"></circle><circle r="25" cx="434.89" cy="135.05" fill="url(#SvgjsRadialGradient1113)"></circle><circle r="5" cx="-28.76" cy="838.93" fill="rgba(141, 168, 212, 0.975)"></circle><circle r="5" cx="48.83" cy="749.61" fill="rgba(141, 168, 212, 0.975)"></circle><circle r="5" cx="66.47" cy="838.7" fill="rgba(141, 168, 212, 0.975)"></circle><circle r="5" cx="145.46" cy="638.61" fill="rgba(141, 168, 212, 0.975)"></circle><circle r="5" cx="141.69" cy="726.55" fill="rgba(141, 168, 212, 0.975)"></circle><circle r="5" cx="174.91" cy="845.74" fill="rgba(141, 168, 212, 0.975)"></circle><circle r="5" cx="254.44" cy="458.39" fill="rgba(141, 168, 212, 0.975)"></circle><circle r="5" cx="270.02" cy="627.46" fill="rgba(141, 168, 212, 0.975)"></circle><circle r="5" cx="227.58" cy="872.41" fill="rgba(141, 168, 212, 0.975)"></circle><circle r="5" cx="336.57" cy="-69.4" fill="rgba(141, 168, 212, 0.975)"></circle><circle r="5" cx="348.01" cy="55.81" fill="rgba(141, 168, 212, 0.975)"></circle><circle r="5" cx="336.66" cy="358.21" fill="rgba(141, 168, 212, 0.975)"></circle><circle r="5" cx="369.94" cy="727.3" fill="rgba(141, 168, 212, 0.975)"></circle><circle r="5" cx="466.84" cy="-30.67" fill="rgba(141, 168, 212, 0.975)"></circle><circle r="5" cx="464.95" cy="40.84" fill="rgba(141, 168, 212, 0.975)"></circle><circle r="5" cx="462.77" cy="246.1" fill="rgba(141, 168, 212, 0.975)"></circle><circle r="5" cx="464.96" cy="370.91" fill="rgba(141, 168, 212, 0.975)"></circle><circle r="5" cx="455.76" cy="474.79" fill="rgba(141, 168, 212, 0.975)"></circle><circle r="5" cx="444.53" cy="558.1" fill="rgba(141, 168, 212, 0.975)"></circle><circle r="5" cx="464.91" cy="766.89" fill="rgba(141, 168, 212, 0.975)"></circle><circle r="5" cx="438.47" cy="854.81" fill="rgba(141, 168, 212, 0.975)"></circle></g><defs><mask id="SvgjsMask1112"><rect width="400" height="800" fill="#ffffff"></rect></mask><radialGradient id="SvgjsRadialGradient1113"><stop stop-color="#ffffff" offset="0.1"></stop><stop stop-color="rgba(14, 71, 165, 0.95)" offset="0.2"></stop><stop stop-color="rgba(14, 71, 165, 0)" offset="1"></stop></radialGradient></defs></svg>